<svg xmlns="http://www.w3.org/2000/svg" xmlns:xlink="http://www.w3.org/1999/xlink" version="1.1" width="256" height="256" viewBox="0 0 256 256" xml:space="preserve">
<g style="stroke: none; stroke-width: 0; stroke-dasharray: none; stroke-linecap: butt; stroke-linejoin: miter; stroke-miterlimit: 10; fill: none; fill-rule: nonzero; opacity: 1;" transform="translate(1.4065934065934016 1.4065934065934016) scale(2.81 2.81)">
	<circle cx="45.001" cy="47.211" r="42.791" style="stroke: none; stroke-width: 1; stroke-dasharray: none; stroke-linecap: butt; stroke-linejoin: miter; stroke-miterlimit: 10; fill: rgb(232,129,2); fill-rule: nonzero; opacity: 1;" transform="  matrix(1 0 0 1 0 0) "/>
	<circle cx="45" cy="42.79" r="35" style="stroke: none; stroke-width: 1; stroke-dasharray: none; stroke-linecap: butt; stroke-linejoin: miter; stroke-miterlimit: 10; fill: rgb(243,158,9); fill-rule: nonzero; opacity: 1;" transform="  matrix(1 0 0 1 0 0) "/>
	<path d="M 45 13.791 c 17.977 0 32.78 13.555 34.766 31 c 0.15 -1.313 0.234 -2.647 0.234 -4 c 0 -19.33 -15.67 -35 -35 -35 s -35 15.67 -35 35 c 0 1.353 0.085 2.687 0.234 4 C 12.22 27.346 27.023 13.791 45 13.791 z" style="stroke: none; stroke-width: 1; stroke-dasharray: none; stroke-linecap: butt; stroke-linejoin: miter; stroke-miterlimit: 10; fill: rgb(232,129,2); fill-rule: nonzero; opacity: 1;" transform=" matrix(1 0 0 1 0 0) " stroke-linecap="round"/>
	<path d="M 45 0 C 21.367 0 2.209 19.158 2.209 42.791 c 0 23.633 19.158 42.791 42.791 42.791 s 42.791 -19.158 42.791 -42.791 C 87.791 19.158 68.633 0 45 0 z M 45 75.928 c -18.301 0 -33.137 -14.836 -33.137 -33.137 C 11.863 24.49 26.699 9.653 45 9.653 S 78.137 24.49 78.137 42.791 C 78.137 61.092 63.301 75.928 45 75.928 z" style="stroke: none; stroke-width: 1; stroke-dasharray: none; stroke-linecap: butt; stroke-linejoin: miter; stroke-miterlimit: 10; fill: rgb(254,236,154); fill-rule: nonzero; opacity: 1;" transform=" matrix(1 0 0 1 0 0) " stroke-linecap="round"/>
	<path d="M 45 0 C 21.367 0 2.209 19.158 2.209 42.791 c 0 23.633 19.158 42.791 42.791 42.791 s 42.791 -19.158 42.791 -42.791 C 87.791 19.158 68.633 0 45 0 z M 45 75.928 c -18.301 0 -33.137 -14.836 -33.137 -33.137 C 11.863 24.49 26.699 9.653 45 9.653 S 78.137 24.49 78.137 42.791 C 78.137 61.092 63.301 75.928 45 75.928 z" style="stroke: none; stroke-width: 1; stroke-dasharray: none; stroke-linecap: butt; stroke-linejoin: miter; stroke-miterlimit: 10; fill: rgb(253,216,53); fill-rule: nonzero; opacity: 1;" transform=" matrix(1 0 0 1 0 0) " stroke-linecap="round"/>
	<path d="M 83.422 23.947 l -7.339 7.339 c 1.241 3.352 1.947 6.961 2.035 10.723 l 8.623 -8.623 C 85.999 30.079 84.88 26.916 83.422 23.947 z" style="stroke: none; stroke-width: 1; stroke-dasharray: none; stroke-linecap: butt; stroke-linejoin: miter; stroke-miterlimit: 10; fill: rgb(254,236,154); fill-rule: nonzero; opacity: 1;" transform=" matrix(1 0 0 1 0 0) " stroke-linecap="round"/>
	<path d="M 44.218 75.909 c -3.762 -0.087 -7.371 -0.794 -10.723 -2.035 l -7.339 7.339 c 2.969 1.459 6.132 2.578 9.439 3.32 L 44.218 75.909 z" style="stroke: none; stroke-width: 1; stroke-dasharray: none; stroke-linecap: butt; stroke-linejoin: miter; stroke-miterlimit: 10; fill: rgb(254,236,154); fill-rule: nonzero; opacity: 1;" transform=" matrix(1 0 0 1 0 0) " stroke-linecap="round"/>
	<path d="M 15.236 57.365 l -7.118 7.118 c 3.188 5.408 7.526 10.054 12.685 13.598 l 6.975 -6.975 C 22.396 67.826 18.027 63.053 15.236 57.365 z" style="stroke: none; stroke-width: 1; stroke-dasharray: none; stroke-linecap: butt; stroke-linejoin: miter; stroke-miterlimit: 10; fill: rgb(254,236,154); fill-rule: nonzero; opacity: 1;" transform=" matrix(1 0 0 1 0 0) " stroke-linecap="round"/>
	<path d="M 66.692 5.909 l -7.118 7.118 c 5.688 2.791 10.461 7.16 13.741 12.541 l 6.975 -6.975 C 76.745 13.435 72.1 9.097 66.692 5.909 z" style="stroke: none; stroke-width: 1; stroke-dasharray: none; stroke-linecap: butt; stroke-linejoin: miter; stroke-miterlimit: 10; fill: rgb(254,236,154); fill-rule: nonzero; opacity: 1;" transform=" matrix(1 0 0 1 0 0) " stroke-linecap="round"/>
	<path d="M 49.861 10.012 c 1.441 0.212 2.849 0.522 4.223 0.913 l 7.565 -7.565 c -1.224 -0.517 -2.478 -0.976 -3.756 -1.379 L 49.861 10.012 z" style="stroke: none; stroke-width: 1; stroke-dasharray: none; stroke-linecap: butt; stroke-linejoin: miter; stroke-miterlimit: 10; fill: rgb(254,236,154); fill-rule: nonzero; opacity: 1;" transform=" matrix(1 0 0 1 0 0) " stroke-linecap="round"/>
	<path d="M 5.569 59.44 l 7.565 -7.565 c -0.391 -1.374 -0.701 -2.782 -0.913 -4.223 L 4.19 55.683 C 4.593 56.962 5.052 58.216 5.569 59.44 z" style="stroke: none; stroke-width: 1; stroke-dasharray: none; stroke-linecap: butt; stroke-linejoin: miter; stroke-miterlimit: 10; fill: rgb(254,236,154); fill-rule: nonzero; opacity: 1;" transform=" matrix(1 0 0 1 0 0) " stroke-linecap="round"/>
	<path d="M 44.737 67.688 c -4.711 0 -9.153 -2.883 -10.902 -7.546 c -0.582 -1.552 0.204 -3.281 1.756 -3.862 c 1.549 -0.586 3.28 0.203 3.862 1.755 c 1.089 2.906 4.34 4.389 7.248 3.294 c 2.905 -1.09 4.384 -4.341 3.294 -7.248 c -0.624 -1.664 -1.967 -2.908 -3.685 -3.412 l -0.188 -0.062 l -4.224 -1.547 c -3.497 -1.06 -6.231 -3.618 -7.512 -7.033 c -1.091 -2.909 -0.983 -6.068 0.302 -8.896 c 1.285 -2.828 3.595 -4.986 6.504 -6.077 c 6.002 -2.25 12.72 0.801 14.972 6.806 c 0.582 1.551 -0.204 3.281 -1.755 3.863 c -1.547 0.579 -3.281 -0.203 -3.862 -1.755 c -1.09 -2.907 -4.341 -4.385 -7.249 -3.295 c -1.408 0.528 -2.526 1.573 -3.148 2.941 c -0.622 1.369 -0.674 2.898 -0.146 4.307 c 0.624 1.665 1.967 2.908 3.685 3.413 l 0.187 0.062 l 4.225 1.547 c 3.496 1.06 6.23 3.618 7.512 7.033 c 2.251 6.005 -0.803 12.722 -6.806 14.973 C 47.467 67.449 46.091 67.688 44.737 67.688 z" style="stroke: none; stroke-width: 1; stroke-dasharray: none; stroke-linecap: butt; stroke-linejoin: miter; stroke-miterlimit: 10; fill: rgb(232,129,2); fill-rule: nonzero; opacity: 1;" transform=" matrix(1 0 0 1 0 0) " stroke-linecap="round"/>
	<path d="M 45 32.323 c -1.657 0 -3 -1.343 -3 -3 V 24.5 c 0 -1.657 1.343 -3 3 -3 c 1.657 0 3 1.343 3 3 v 4.823 C 48 30.979 46.657 32.323 45 32.323 z" style="stroke: none; stroke-width: 1; stroke-dasharray: none; stroke-linecap: butt; stroke-linejoin: miter; stroke-miterlimit: 10; fill: rgb(232,129,2); fill-rule: nonzero; opacity: 1;" transform=" matrix(1 0 0 1 0 0) " stroke-linecap="round"/>
	<path d="M 45 72.5 c -1.657 0 -3 -1.343 -3 -3 v -4.823 c 0 -1.657 1.343 -3 3 -3 c 1.657 0 3 1.343 3 3 V 69.5 C 48 71.157 46.657 72.5 45 72.5 z" style="stroke: none; stroke-width: 1; stroke-dasharray: none; stroke-linecap: butt; stroke-linejoin: miter; stroke-miterlimit: 10; fill: rgb(232,129,2); fill-rule: nonzero; opacity: 1;" transform=" matrix(1 0 0 1 0 0) " stroke-linecap="round"/>
	<path d="M 44.737 63.688 c -4.711 0 -9.153 -2.883 -10.902 -7.546 c -0.582 -1.552 0.204 -3.281 1.756 -3.862 c 1.549 -0.586 3.28 0.203 3.862 1.755 c 1.089 2.906 4.34 4.389 7.248 3.294 c 2.905 -1.09 4.384 -4.341 3.294 -7.248 c -0.624 -1.664 -1.967 -2.908 -3.685 -3.412 l -0.188 -0.062 l -4.224 -1.547 c -3.497 -1.06 -6.231 -3.618 -7.512 -7.033 c -1.091 -2.909 -0.983 -6.068 0.302 -8.896 c 1.285 -2.828 3.595 -4.986 6.504 -6.077 c 6.002 -2.25 12.72 0.801 14.972 6.806 c 0.582 1.551 -0.204 3.281 -1.755 3.863 c -1.547 0.579 -3.281 -0.203 -3.862 -1.755 c -1.09 -2.907 -4.341 -4.385 -7.249 -3.295 c -1.408 0.528 -2.526 1.573 -3.148 2.941 c -0.622 1.369 -0.674 2.898 -0.146 4.307 c 0.624 1.665 1.967 2.908 3.685 3.413 l 0.187 0.062 l 4.225 1.547 c 3.496 1.06 6.23 3.618 7.512 7.033 c 2.251 6.005 -0.803 12.722 -6.806 14.973 C 47.467 63.449 46.091 63.688 44.737 63.688 z" style="stroke: none; stroke-width: 1; stroke-dasharray: none; stroke-linecap: butt; stroke-linejoin: miter; stroke-miterlimit: 10; fill: rgb(253,216,53); fill-rule: nonzero; opacity: 1;" transform=" matrix(1 0 0 1 0 0) " stroke-linecap="round"/>
	<path d="M 45 28.323 c -1.657 0 -3 -1.343 -3 -3 V 20.5 c 0 -1.657 1.343 -3 3 -3 c 1.657 0 3 1.343 3 3 v 4.823 C 48 26.979 46.657 28.323 45 28.323 z" style="stroke: none; stroke-width: 1; stroke-dasharray: none; stroke-linecap: butt; stroke-linejoin: miter; stroke-miterlimit: 10; fill: rgb(253,216,53); fill-rule: nonzero; opacity: 1;" transform=" matrix(1 0 0 1 0 0) " stroke-linecap="round"/>
	<path d="M 45 68.5 c -1.657 0 -3 -1.343 -3 -3 v -4.823 c 0 -1.657 1.343 -3 3 -3 c 1.657 0 3 1.343 3 3 V 65.5 C 48 67.157 46.657 68.5 45 68.5 z" style="stroke: none; stroke-width: 1; stroke-dasharray: none; stroke-linecap: butt; stroke-linejoin: miter; stroke-miterlimit: 10; fill: rgb(253,216,53); fill-rule: nonzero; opacity: 1;" transform=" matrix(1 0 0 1 0 0) " stroke-linecap="round"/>
</g>
</svg>